<svg width="787" height="930" viewBox="0 0 787 930" fill="none" xmlns="http://www.w3.org/2000/svg">
<path d="M616.861 36.734C658.158 -25.3197 754.404 -2.14891 762.935 71.9006L794.647 347.166C798.49 380.522 822.753 407.929 855.397 415.788L1133.42 482.721C1210.99 501.396 1216.42 609.671 1141.11 636.013L900.438 720.194C865.132 732.543 843.095 767.706 847.376 804.864L875.871 1052.21C884.653 1128.44 791.476 1172.11 738.511 1116.58L531.099 899.157C509.42 876.431 476.448 868.493 446.801 878.862L163.161 978.071C90.7294 1003.41 27.6355 922.116 70.1485 858.235L208.091 650.959C228.814 619.821 225.195 578.481 199.378 551.417L23.3853 366.926C-31.6868 309.195 22.4259 215.254 99.996 233.929L378.023 300.862C410.667 308.721 444.745 295.36 463.347 267.407L616.861 36.734Z" fill="#DDD8B8"/>
</svg>
