<svg width="1195" height="1142" viewBox="0 0 1195 1142" fill="none" xmlns="http://www.w3.org/2000/svg">
<path d="M616.829 36.5767C658.127 -25.477 754.373 -2.3062 762.904 71.7433L794.615 347.009C798.458 380.365 822.721 407.772 855.365 415.631L1133.39 482.564C1210.96 501.239 1216.39 609.514 1141.08 635.856L900.406 720.037C865.1 732.385 843.064 767.549 847.344 804.706L875.84 1052.05C884.622 1128.28 791.445 1171.95 738.479 1116.43L531.068 899C509.388 876.273 476.416 868.336 446.769 878.705L163.129 977.914C90.6978 1003.25 27.6038 921.958 70.1169 858.077L208.06 650.802C228.782 619.664 225.163 578.324 199.346 551.26L23.3537 366.769C-31.7185 309.038 22.3942 215.097 99.9644 233.772L377.991 300.705C410.635 308.564 444.713 295.202 463.315 267.25L616.829 36.5767Z" fill="#DDD8B8"/>
</svg>
