<svg width="468" height="433" viewBox="0 0 468 433" fill="none" xmlns="http://www.w3.org/2000/svg">
<path d="M179.523 24.9519C184.461 -2.36078 220.652 -8.89692 234.833 14.9627L290.017 107.812C296.413 118.573 308.818 124.232 321.138 122.007L431.738 102.032C461.324 96.6884 479.504 133.344 457.347 153.664L384.653 220.329C374.185 229.93 371.884 245.557 379.141 257.767L428.018 340.005C442.7 364.707 417.602 393.925 390.968 383.138L281.011 338.605C270.279 334.259 258.005 336.476 249.472 344.301L162.04 424.484C140.861 443.906 107.129 425.312 112.242 397.035L129.264 302.896C131.792 288.918 124.17 275.084 111.005 269.752L19.5843 232.726C-8.2811 221.441 -4.07147 180.741 25.5139 175.398L136.114 155.423C148.434 153.198 158.076 143.557 160.304 131.238L179.523 24.9519Z" fill="#DDD8B8"/>
</svg>
